<?xml version="1.0" standalone="no"?>
<!DOCTYPE svg PUBLIC "-//W3C//DTD SVG 20010904//EN"
 "http://www.w3.org/TR/2001/REC-SVG-20010904/DTD/svg10.dtd">
<svg version="1.0" xmlns="http://www.w3.org/2000/svg"
 width="1272.000000pt" height="842.000000pt" viewBox="0 0 1272.000000 842.000000"
 preserveAspectRatio="xMidYMid meet">

<g transform="translate(0.000000,842.000000) scale(0.100000,-0.100000)"
fill="#000000" stroke="none">
<path d="M0 4210 l0 -4210 6360 0 6360 0 0 4210 0 4210 -6360 0 -6360 0 0
-4210z m6140 1763 c26 -15 29 -15 45 0 14 15 42 17 203 17 l187 0 155 -93
c118 -70 156 -97 158 -114 2 -13 1 -23 -3 -23 -3 0 -77 40 -163 89 l-157 89
-187 6 c-104 4 -188 5 -188 2 0 -2 99 -62 220 -131 121 -70 220 -129 220 -132
0 -2 -4 -1 -10 2 -14 9 -12 -29 3 -44 6 -7 -106 55 -250 138 -144 83 -266 152
-271 153 -5 2 -97 -46 -204 -107 l-194 -109 -60 -101 c-56 -94 -59 -98 -62
-68 -2 24 9 55 44 116 l46 84 207 122 c113 66 212 121 219 121 8 0 27 -7 42
-17z m913 -342 c51 -90 67 -129 65 -152 -3 -28 -7 -23 -58 63 l-55 93 -5 -329
-5 -329 -65 -40 c-95 -59 -503 -287 -512 -287 -4 0 -8 9 -8 19 0 15 39 43 150
108 l149 88 3 220 c3 212 4 220 23 220 19 0 20 -8 25 -202 l5 -202 93 51 92
52 0 371 c0 204 3 375 7 379 15 15 31 -5 96 -123z m-876 47 c64 -36 73 -45 73
-70 l0 -29 -78 42 -78 43 -269 -154 c-149 -84 -273 -155 -277 -157 -5 -2 -8 7
-8 21 0 22 21 38 168 124 274 162 376 221 386 222 6 0 43 -19 83 -42z m308
-181 c88 -54 121 -79 123 -95 2 -12 1 -22 -2 -22 -16 0 -278 154 -268 158 7 2
12 10 12 18 0 8 3 14 8 13 4 0 61 -33 127 -72z m-237 11 c-2 -17 -39 -44 -148
-108 l-145 -86 -2 -360 -2 -359 270 -155 c245 -140 348 -202 282 -170 -20 9
-23 8 -23 -10 0 -11 -2 -20 -5 -20 -6 0 -480 270 -537 307 l-38 23 0 356 0
356 -65 -37 c-62 -34 -65 -35 -65 -14 0 16 -4 20 -17 14 -12 -4 -14 -3 -8 3
15 15 487 282 497 282 5 0 8 -10 6 -22z m870 -710 c-2 -18 -51 -51 -218 -150
-118 -70 -242 -141 -276 -159 l-61 -33 -76 45 c-67 38 -77 48 -77 72 l0 29 48
-27 c26 -15 61 -36 77 -45 l30 -18 270 154 c148 85 273 154 278 154 5 0 7 -10
5 -22z m-920 -76 c120 -66 130 -75 120 -92 -14 -22 -4 -26 -160 67 -81 48
-108 69 -108 84 0 25 -12 30 148 -59z m-559 -146 c25 -39 31 -59 29 -90 l-3
-41 -62 110 c-44 77 -63 120 -63 145 l0 35 34 -55 c19 -30 48 -77 65 -104z
m1396 -60 l-46 -85 -201 -118 c-111 -65 -204 -119 -207 -120 -3 -2 -6 10 -7
25 -1 26 12 35 191 136 l192 109 59 99 c54 91 59 97 62 69 2 -22 -11 -56 -43
-115z m-1080 -197 l140 -78 193 -7 c178 -7 192 -8 192 -26 0 -17 -12 -18 -199
-18 l-199 0 -156 92 c-130 77 -156 96 -156 116 0 27 -17 34 185 -79z m-2142
-631 c9 -57 24 -156 33 -221 10 -65 21 -112 25 -105 3 7 15 68 24 136 l18 123
36 -3 36 -3 21 -135 c12 -74 24 -128 27 -120 3 8 17 96 32 195 37 256 30 235
72 235 33 0 35 -2 30 -26 -2 -15 -27 -170 -53 -345 l-49 -319 -36 0 -36 0 -18
123 c-9 67 -21 128 -24 135 -4 7 -16 -48 -26 -123 l-19 -135 -38 0 c-24 0 -38
5 -38 13 0 10 -52 360 -96 640 -6 37 -6 37 29 37 l34 0 16 -102z m527 -43 l0
-145 25 0 25 0 0 145 0 145 40 0 40 0 0 -345 0 -345 -40 0 -40 0 0 160 c0 153
-1 160 -20 160 -19 0 -20 -7 -20 -160 l0 -160 -40 0 -40 0 0 345 0 345 35 0
35 0 0 -145z m430 131 c0 -14 55 -546 65 -628 l6 -48 -39 0 c-36 0 -40 3 -46
31 -3 17 -6 47 -6 65 l0 34 -50 0 -50 0 0 -42 c0 -74 -8 -88 -46 -88 -19 0
-34 4 -34 8 0 14 59 583 66 635 l6 47 64 0 c47 0 64 -4 64 -14z m370 -26 c0
-38 -2 -40 -30 -40 l-30 0 0 -305 0 -305 -40 0 -40 0 0 304 0 305 -32 3 c-30
3 -33 6 -36 41 l-3 37 105 0 106 0 0 -40z m140 -10 c0 -43 -3 -50 -20 -50 -17
0 -20 7 -20 50 0 43 3 50 20 50 17 0 20 -7 20 -50z m268 34 c37 -26 52 -67 52
-144 l0 -70 -35 0 -35 0 0 56 c0 64 -13 94 -41 94 -55 0 -48 -107 13 -202 23
-35 54 -91 71 -126 26 -56 29 -70 25 -143 -3 -77 -5 -82 -36 -110 -43 -38
-107 -41 -145 -5 -30 28 -49 91 -45 149 3 41 4 42 41 45 l37 3 0 -54 c0 -40 5
-61 20 -78 l20 -24 21 25 c32 37 23 113 -21 182 -104 163 -132 246 -111 325
21 79 109 119 169 77z m711 0 c46 -33 51 -65 51 -334 0 -269 -3 -290 -52 -324
-26 -18 -90 -21 -120 -5 -11 6 -28 29 -39 52 -16 37 -19 68 -19 280 0 259 4
285 55 325 33 26 91 29 124 6z m249 -71 c11 -49 28 -124 39 -168 l18 -80 3
168 2 167 40 0 40 0 0 -345 0 -345 -43 0 -44 0 -36 158 -35 157 -1 -157 -1
-158 -40 0 -40 0 0 345 0 345 39 0 39 0 20 -87z m600 71 c37 -26 52 -67 52
-144 l0 -70 -35 0 -35 0 0 49 c0 65 -14 101 -39 101 -36 0 -41 -30 -41 -274 0
-203 2 -237 16 -251 35 -35 64 11 64 103 l0 62 35 0 35 0 0 -80 c0 -120 -34
-170 -113 -170 -53 0 -76 15 -98 63 -16 37 -19 68 -19 280 0 259 4 285 55 325
33 26 91 29 123 6z m352 2 c0 -19 58 -576 65 -633 l6 -43 -39 0 c-45 0 -52 12
-52 88 l0 42 -50 0 -50 0 0 -42 c0 -74 -8 -88 -46 -88 -22 0 -34 5 -34 13 0
18 58 580 65 635 l6 42 65 0 c49 0 64 -3 64 -14z m297 -181 c17 -104 33 -194
33 -200 1 -5 16 80 34 190 l31 200 48 3 47 3 0 -345 0 -346 -40 0 -40 0 -1
168 -1 167 -14 -85 c-27 -165 -20 -150 -64 -150 -45 0 -42 -7 -67 145 l-18
110 -3 -177 -2 -178 -40 0 -40 0 0 346 0 345 52 -3 53 -3 32 -190z m461 179
c32 -22 51 -66 58 -131 12 -117 -37 -203 -115 -203 l-41 0 0 -170 0 -170 -40
0 -40 0 0 345 0 345 78 0 c54 0 84 -5 100 -16z m232 -273 c0 -274 1 -290 20
-312 l20 -24 20 24 c19 22 20 38 20 312 l0 289 35 0 36 0 -3 -316 -3 -316 -33
-29 c-24 -22 -42 -29 -73 -29 -55 0 -77 14 -100 63 -17 38 -19 69 -19 335 l0
292 40 0 40 0 0 -289z m429 273 c34 -24 51 -74 51 -149 l0 -66 -37 3 -38 3 -5
70 c-4 57 -8 70 -23 73 -35 7 -49 -18 -45 -79 4 -48 12 -69 57 -137 65 -100
91 -167 91 -237 0 -102 -39 -155 -115 -155 -77 0 -115 53 -115 160 l0 61 38
-3 37 -3 5 -63 c5 -67 20 -88 52 -71 14 8 18 22 18 73 0 56 -4 69 -40 127 -78
124 -110 199 -110 257 0 64 23 117 59 137 35 19 91 19 120 -1z m-2891 -331 l3
-33 -145 0 -146 0 0 35 0 36 143 -3 142 -3 3 -32z m-848 -769 c0 -6 -13 -9
-30 -6 l-30 4 0 -60 c0 -48 4 -63 18 -71 13 -8 9 -10 -23 -10 -22 0 -34 3 -27
6 8 3 12 27 12 70 l0 65 -29 -4 c-18 -3 -27 0 -25 6 6 15 134 14 134 0z m73
-25 l-6 -40 39 3 c32 2 40 7 42 26 2 13 -2 30 -8 38 -11 12 -7 14 21 14 26 0
30 -3 21 -12 -7 -7 -12 -37 -12 -68 0 -31 5 -61 12 -68 9 -9 4 -12 -22 -12
-26 0 -31 3 -22 12 7 7 12 22 12 35 0 20 -5 23 -40 23 -38 0 -40 -2 -40 -29 0
-16 6 -32 13 -34 6 -3 -1 -6 -18 -6 l-30 -1 3 72 c3 65 12 87 34 88 3 0 4 -18
1 -41z m192 -39 l0 -80 -30 0 c-21 0 -26 3 -16 9 10 6 12 27 9 80 -3 66 -2 71
17 71 18 0 20 -6 20 -80z m109 23 l56 -58 0 45 c0 26 -5 51 -12 58 -9 9 -7 12
13 12 24 0 24 -1 21 -80 -2 -44 -7 -80 -10 -80 -4 0 -31 25 -59 57 l-53 58 0
-52 c0 -32 5 -53 13 -56 6 -3 1 -6 -13 -6 -25 -1 -25 -1 -22 79 2 44 5 80 7
80 1 0 28 -26 59 -57z m244 39 c3 -9 -6 -11 -39 -6 -47 8 -69 -9 -69 -53 0
-27 41 -73 65 -73 24 0 31 31 10 46 -17 13 -15 14 18 14 32 0 36 -2 28 -17 -5
-10 -12 -26 -15 -35 -8 -25 -66 -23 -100 3 -42 33 -32 109 17 129 30 12 80 8
85 -8z m203 -57 c17 -38 35 -73 42 -77 7 -5 -1 -8 -19 -8 -24 0 -31 4 -30 18
1 13 -8 18 -38 20 -35 3 -38 1 -33 -17 4 -17 0 -21 -20 -21 -24 0 -25 1 -11
18 9 9 26 45 39 79 13 35 28 61 32 60 5 -1 22 -34 38 -72z m173 59 c19 -18 19
-20 6 -44 -7 -13 -6 -19 5 -24 20 -7 19 -40 -1 -60 -10 -11 -34 -16 -72 -16
-36 0 -52 3 -43 9 10 6 12 27 9 80 l-4 71 42 0 c25 0 49 -6 58 -16z m184 -4
c30 -28 36 -62 18 -98 -34 -66 -135 -54 -151 17 -17 77 77 133 133 81z m104 8
c-18 -18 -15 -103 4 -122 37 -37 74 -5 74 63 0 26 -5 52 -12 59 -9 9 -6 12 15
12 24 0 26 -2 17 -19 -5 -11 -10 -42 -10 -68 0 -59 -12 -73 -61 -73 -48 0 -60
17 -68 95 l-7 65 30 0 c23 0 27 -3 18 -12z m268 -1 c0 -7 -12 -13 -27 -12 -27
0 -28 -2 -31 -55 -3 -43 1 -57 14 -67 15 -11 12 -13 -27 -13 -35 1 -40 3 -26
11 13 8 17 23 17 71 l0 60 -30 -4 c-20 -3 -30 0 -30 9 0 9 19 13 70 13 50 0
70 -4 70 -13z m120 -5 c0 -10 6 -27 14 -38 15 -19 15 -19 30 1 9 11 14 28 12
38 -3 13 2 17 22 17 l25 0 -20 -22 c-42 -46 -59 -120 -30 -131 6 -3 -6 -6 -27
-6 -31 -1 -37 2 -28 11 21 21 13 55 -23 102 l-35 46 30 0 c22 0 30 -5 30 -18z
m255 -7 c73 -73 -37 -184 -112 -113 -50 47 -12 138 57 138 19 0 40 -9 55 -25z
m100 -41 c0 -53 4 -69 18 -78 12 -8 22 -8 35 0 13 9 17 25 17 78 0 52 3 66 15
66 13 0 15 -11 10 -64 -6 -74 -21 -96 -63 -96 -47 0 -67 25 -67 85 0 28 -5 56
-12 63 -9 9 -5 12 18 12 l29 0 0 -66z m232 51 c26 -18 30 -37 8 -55 -13 -11
-11 -17 16 -51 22 -28 26 -39 15 -39 -8 0 -27 16 -42 35 -14 19 -33 35 -40 35
-18 0 -19 -56 -1 -63 6 -3 -1 -6 -18 -6 l-30 -1 0 78 0 77 34 3 c19 1 45 -5
58 -13z m211 -3 c3 -11 0 -12 -16 -3 -23 12 -52 5 -52 -14 0 -7 18 -24 40 -39
45 -29 49 -45 21 -70 -22 -20 -72 -18 -79 2 -3 10 2 10 21 1 29 -13 57 -6 57
14 0 8 -17 25 -37 38 -46 30 -50 42 -23 69 23 23 61 24 68 2z m146 12 c31 -12
15 -22 -25 -17 -46 7 -59 -4 -59 -51 0 -41 26 -66 69 -66 27 0 32 -3 21 -10
-24 -16 -55 -12 -84 11 -67 52 -2 164 78 133z m-3052 -78 c2 -53 0 -72 -9 -69
-16 6 -22 143 -6 143 7 0 13 -26 15 -74z m72 51 c8 -13 6 -21 -8 -34 -18 -17
-19 -17 -12 0 3 10 1 28 -5 39 -14 25 9 21 25 -5z m117 -10 c9 -17 21 -31 26
-30 5 1 7 -14 5 -34 -3 -23 0 -38 9 -44 10 -6 3 -9 -20 -9 -27 0 -32 3 -23 12
19 19 14 50 -13 90 -28 42 -30 48 -12 48 6 0 19 -15 28 -33z m79 29 c0 -3 -4
-8 -10 -11 -5 -3 -10 -1 -10 4 0 6 5 11 10 11 6 0 10 -2 10 -4z m2872 -32 l-4
-35 43 3 c42 3 44 4 44 36 0 17 4 32 10 32 6 0 9 -24 7 -60 -3 -38 1 -66 8
-75 10 -13 8 -15 -16 -15 -22 0 -25 3 -16 12 7 7 12 22 12 35 0 21 -5 23 -45
23 -43 0 -45 -1 -45 -29 0 -16 6 -32 13 -34 6 -3 -4 -5 -23 -5 -19 0 -29 2
-22 5 8 3 12 28 12 74 0 50 4 69 13 69 9 0 12 -11 9 -36z m-3067 -74 c21 -22
34 -40 27 -40 -12 0 -62 50 -62 62 0 3 -8 9 -17 11 -14 4 -14 5 -3 6 9 0 34
-17 55 -39z"/>
<path d="M4697 3650 c-3 -8 -11 -76 -17 -150 -6 -74 -13 -147 -16 -162 -5 -27
-4 -28 35 -28 l40 0 -5 48 c-3 26 -11 106 -18 177 -7 72 -15 123 -19 115z"/>
<path d="M6170 3691 c-6 -12 -10 -112 -10 -255 0 -203 2 -237 16 -251 20 -20
35 -15 51 16 16 30 18 444 3 483 -11 31 -45 35 -60 7z"/>
<path d="M7371 3513 c-6 -82 -14 -160 -17 -175 -5 -27 -4 -28 36 -28 35 0 41
3 37 18 -3 9 -11 85 -18 167 -6 83 -15 153 -18 158 -4 4 -13 -59 -20 -140z"/>
<path d="M8120 3615 l0 -95 30 0 c36 0 50 27 50 95 0 68 -14 95 -50 95 l-30 0
0 -95z"/>
<path d="M5902 2616 c-11 -24 -10 -26 13 -26 28 0 31 8 12 34 -12 17 -14 16
-25 -8z"/>
<path d="M6070 2645 c0 -22 4 -26 23 -23 14 2 22 10 22 23 0 13 -8 21 -22 23
-19 3 -23 -1 -23 -23z"/>
<path d="M6070 2581 c0 -34 12 -45 40 -36 36 12 18 65 -22 65 -13 0 -18 -8
-18 -29z"/>
<path d="M6220 2649 c-22 -40 14 -109 57 -109 21 0 46 47 39 74 -13 54 -74 76
-96 35z"/>
<path d="M6967 2663 c-15 -15 -7 -83 13 -103 23 -23 33 -24 61 -10 24 13 26
66 3 98 -15 21 -62 31 -77 15z"/>
<path d="M7347 2674 c-4 -4 -7 -20 -7 -36 0 -21 5 -28 20 -28 11 0 23 7 27 16
10 27 -22 65 -40 48z"/>
</g>
</svg>
